<?xml version="1.0" encoding="utf-8"?>
<!-- Generator: Adobe Illustrator 22.1.0, SVG Export Plug-In . SVG Version: 6.00 Build 0)  -->
<svg version="1.1" id="Layer_1" xmlns="http://www.w3.org/2000/svg" xmlns:xlink="http://www.w3.org/1999/xlink" x="0px" y="0px"
	 viewBox="0 0 694 400" style="enable-background:new 0 0 694 400;" xml:space="preserve">
<style type="text/css">
	.st0{fill:#404041;}
	.st1{fill:#58595B;}
	.st2{fill:#323031;}
	.st3{fill:#87898B;}
	.st4{fill:#BBBDBF;}
	.st5{fill:#6D6E70;}
	.st6{fill:#929497;}
	.st7{fill:#3B3A3C;}
}
</style>

<g>
	<polyline class="st0" points="462.4,133.5 347,200.1 347,66.7 462.5,0 462.5,133.4 	"/>
	<polyline class="st1" points="231.5,133.5 347,200.1 347,66.7 231.5,0 231.5,133.4 	"/>
	<polygon class="st0" points="116,200 231.5,400 231.5,266.7 	"/>
	<polygon class="st2" points="0.5,0.1 115.9,200 115.9,66.7 	"/>
	<polygon class="st1" points="231.5,400 346.9,200 231.5,266.7 	"/>
	<polyline class="st3" points="462.7,133.5 578.1,200.1 578.1,66.7 462.5,0 462.5,133.4 	"/>
	<polyline class="st4" points="462.7,133.5 347.4,200.1 462.8,266.7 578.2,200.1 462.7,133.4 	"/>
	<polygon class="st5" points="347.1,200 462.5,400 462.5,266.7 	"/>
	<polygon class="st4" points="578.1,200.1 693.5,0.1 578.1,66.8 	"/>
	<polygon class="st6" points="462.5,400 578,200.1 462.5,266.7 	"/>
	<polygon class="st2" points="231.6,0.1 347,200 347,66.7 	"/>
	<polyline class="st4" points="231.9,133.5 116.5,200 231.9,266.7 347.4,200.1 231.9,133.5 	"/>
	<polyline class="st7" points="231.5,133.5 115.9,200.1 115.9,66.7 231.5,0 231.5,133.4 	"/>
</g>
</svg>
